<svg width="288.000000" height="120.170532" viewBox="0 0 288 120.171" fill="none" xmlns="http://www.w3.org/2000/svg" xmlns:xlink="http://www.w3.org/1999/xlink">
	<desc>
			Created with Pixso.
	</desc>
	<defs/>
	<rect id="Frame 2043682951" rx="4.500000" width="287.000000" height="101.000000" transform="translate(0.500000 0.500000)" fill="#BCEC30" fill-opacity="1.000000"/>
	<path id="Измени своё тело за полгода!" d="M201.86 22.73Q201.67 23.1 201.67 23.57Q201.67 24.06 201.87 24.43Q201.96 24.6 202.1 24.75Q202.14 24.8 202.19 24.84Q202.62 25.21 203.37 25.21Q204.12 25.21 204.55 24.84Q204.6 24.8 204.65 24.75Q204.8 24.59 204.89 24.41Q205.09 24.04 205.09 23.57Q205.09 23.11 204.9 22.75Q204.8 22.56 204.65 22.39Q204.6 22.33 204.54 22.28Q204.11 21.92 203.37 21.92Q202.63 21.92 202.21 22.28Q202.15 22.33 202.1 22.39Q201.96 22.55 201.86 22.73ZM208.57 22.77Q208.39 23.14 208.39 23.6Q208.39 24.09 208.59 24.46Q208.68 24.63 208.82 24.78Q208.86 24.83 208.91 24.87Q209.34 25.25 210.09 25.25Q210.84 25.25 211.27 24.87Q211.32 24.83 211.37 24.78Q211.52 24.62 211.61 24.44Q211.81 24.07 211.81 23.6Q211.81 23.15 211.63 22.79Q211.53 22.59 211.37 22.42Q211.31 22.35 211.24 22.29Q210.81 21.93 210.09 21.93Q209.36 21.93 208.94 22.29Q208.88 22.35 208.82 22.42Q208.67 22.58 208.57 22.77ZM39.98 22.25L36.98 22.25L25.78 39.78L25.78 22.25L22.76 22.25L22.76 45L25.78 45L36.98 27.46L36.98 45L39.98 45L39.98 22.25ZM88.05 44.34Q89.75 45.31 92 45.31Q94.52 45.31 96.3 44.15Q97.51 43.36 98.37 42.04L96.6 40.67Q95.9 41.57 95 42.17Q94.87 42.25 94.75 42.32Q93.68 42.95 92.15 42.95Q90.95 42.95 89.99 42.47Q89.22 42.09 88.6 41.41Q88.4 41.19 88.22 40.95Q87.19 39.51 87.14 37.37L98.59 37.37L98.59 36.17Q98.59 32.12 96.76 29.95Q96.22 29.31 95.55 28.85Q93.96 27.78 91.64 27.78Q90.75 27.78 89.93 27.99Q88.86 28.27 87.89 28.89Q87.42 29.2 87.01 29.57Q85.9 30.55 85.21 31.99Q84.25 33.96 84.25 36.48L84.25 37.01Q84.25 40.14 85.72 42.22Q86.03 42.66 86.4 43.05Q87.15 43.83 88.05 44.34ZM155.24 42.63Q154.46 42.95 153.56 42.95Q152.11 42.95 151.09 42.28Q150.54 41.93 150.12 41.37Q148.92 39.79 148.92 36.87L148.92 36.32Q148.92 33.32 150.13 31.74Q150.58 31.14 151.18 30.77Q152.17 30.15 153.54 30.15Q154.56 30.15 155.37 30.56Q155.88 30.8 156.3 31.21Q156.71 31.6 156.99 32.07Q157.46 32.87 157.54 33.9L160.28 33.9Q160.2 32.22 159.45 30.93Q158.99 30.13 158.27 29.48Q157.73 28.99 157.12 28.65Q155.57 27.78 153.54 27.78Q151.36 27.78 149.72 28.73Q149.63 28.78 149.53 28.84Q149 29.17 148.55 29.59Q147.56 30.5 146.93 31.82Q146.03 33.75 146.03 36.21L146.03 36.7Q146.03 40.56 147.92 42.84Q147.99 42.92 148.07 43Q148.74 43.77 149.58 44.28Q151.25 45.31 153.56 45.31Q154.38 45.31 155.17 45.13Q156.02 44.93 156.82 44.53Q158.06 43.9 158.9 42.92Q159.1 42.69 159.28 42.43Q160.02 41.37 160.22 40.21Q160.26 39.94 160.28 39.67L157.54 39.67Q157.49 40.25 157.26 40.75Q156.94 41.46 156.26 42.01Q155.78 42.4 155.24 42.63ZM182.02 31.92Q181.04 33.9 181.04 36.39L181.04 36.59Q181.04 40.04 182.68 42.31Q182.91 42.62 183.18 42.92Q184.02 43.86 185.07 44.43Q186.67 45.31 188.75 45.31Q190.6 45.31 192.11 44.59Q192.45 44.42 192.78 44.21Q193.38 43.84 193.89 43.37Q194.86 42.45 195.49 41.16Q196.43 39.2 196.43 36.73L196.43 36.53Q196.43 33 194.74 30.71Q194.54 30.43 194.3 30.17Q193.47 29.24 192.44 28.67Q190.83 27.78 188.71 27.78Q186.96 27.78 185.52 28.44Q185.12 28.62 184.74 28.85Q184.3 29.13 183.9 29.46Q182.75 30.44 182.02 31.92ZM203.13 44.34Q204.83 45.31 207.07 45.31Q209.6 45.31 211.38 44.15Q212.59 43.36 213.45 42.04L211.68 40.67Q210.98 41.57 210.08 42.17Q209.95 42.25 209.82 42.32Q208.76 42.95 207.23 42.95Q206.03 42.95 205.07 42.47Q204.3 42.09 203.68 41.41Q203.47 41.19 203.3 40.95Q202.27 39.51 202.21 37.37L213.67 37.37L213.67 36.17Q213.67 32.12 211.84 29.95Q211.3 29.31 210.63 28.85Q209.04 27.78 206.71 27.78Q205.83 27.78 205.01 27.99Q203.94 28.27 202.97 28.89Q202.5 29.2 202.09 29.57Q200.98 30.55 200.28 31.99Q199.32 33.96 199.32 36.48L199.32 37.01Q199.32 40.14 200.8 42.22Q201.11 42.66 201.48 43.05Q202.23 43.83 203.13 44.34ZM54.02 31.56Q54.29 32.06 54.29 32.71Q54.29 33.63 53.85 34.2Q53.15 35.1 51.34 35.15L48.2 35.15L48.2 37.59L51.09 37.59Q52.89 37.59 53.74 38.21Q53.88 38.31 54 38.43Q54.59 39.06 54.59 40.25Q54.59 40.79 54.39 41.24Q54.14 41.81 53.57 42.23Q52.56 43 50.9 43Q49.55 43 48.56 42.39Q48.35 42.27 48.16 42.11Q47.42 41.52 47.17 40.76Q47.06 40.4 47.06 40L44.18 40Q44.18 41.29 44.72 42.3Q45.19 43.19 46.08 43.86Q46.14 43.91 46.21 43.95Q48.07 45.29 50.9 45.29Q53.9 45.29 55.7 43.93Q56.52 43.31 56.97 42.48Q57.5 41.51 57.5 40.25Q57.5 38.9 56.88 37.97Q56.15 36.85 54.54 36.31Q55.81 35.75 56.5 34.79Q56.89 34.24 57.06 33.63Q57.18 33.18 57.18 32.7Q57.18 31.16 56.48 30.08Q56.1 29.51 55.53 29.07Q53.87 27.79 50.9 27.79Q48.41 27.79 46.66 28.94Q46.47 29.06 46.29 29.2Q45.25 29.99 44.8 31.04Q44.45 31.85 44.45 32.81L47.32 32.81Q47.32 32.52 47.4 32.25Q47.6 31.51 48.35 30.93Q48.48 30.83 48.62 30.74Q49.57 30.14 50.9 30.14Q52.48 30.14 53.39 30.83Q53.79 31.14 54.02 31.56ZM76.73 28.09L70.98 41.17L65.26 28.09L61.51 28.09L61.51 45L64.4 45L64.4 32.43L69.98 45L71.98 45L77.45 32.7L77.45 45L80.34 45L80.34 28.09L76.73 28.09ZM112.85 45L115.75 45L115.75 28.09L112.85 28.09L112.85 35.42L105.09 35.42L105.09 28.09L102.18 28.09L102.18 45L105.09 45L105.09 37.78L112.85 37.78L112.85 45ZM134.21 28.09L131.32 28.09L123.53 40.43L123.53 28.09L120.64 28.09L120.64 45L123.53 45L131.32 32.67L131.32 45L134.21 45L134.21 28.09ZM163.79 28.09L163.79 45L171.43 45Q174.56 45 176.27 43.76Q176.92 43.29 177.33 42.66Q177.98 41.64 177.98 40.2Q177.98 39.36 177.67 38.66Q177.45 38.14 177.05 37.7Q176.87 37.5 176.67 37.32Q175.83 36.58 174.59 36.29Q175.96 35.79 176.67 34.85Q177.03 34.36 177.2 33.82Q177.37 33.3 177.37 32.73Q177.37 31.45 176.8 30.51Q176.36 29.79 175.57 29.27Q173.76 28.09 170.39 28.09L163.79 28.09ZM90 30.48Q90.75 30.15 91.64 30.15Q92.85 30.15 93.73 30.69Q94.16 30.96 94.51 31.36Q95.57 32.57 95.7 34.78L95.7 35L87.23 35Q87.51 32.7 88.7 31.42Q89.28 30.8 90 30.48ZM185.25 41.25Q183.95 39.54 183.95 36.73Q183.95 33.56 185.26 31.85Q185.92 30.99 186.8 30.57Q187.66 30.15 188.71 30.15Q189.83 30.15 190.71 30.6Q191.57 31.03 192.22 31.88Q193.54 33.6 193.54 36.39Q193.54 39.5 192.25 41.22Q191.63 42.04 190.81 42.47Q189.9 42.95 188.75 42.95Q187.6 42.95 186.69 42.48Q185.87 42.05 185.25 41.25ZM205.08 30.48Q205.83 30.15 206.71 30.15Q207.93 30.15 208.81 30.69Q209.24 30.96 209.59 31.36Q210.65 32.57 210.78 34.78L210.78 35L202.31 35Q202.59 32.7 203.78 31.42Q204.36 30.8 205.08 30.48ZM170.42 35.26L166.68 35.26L166.68 30.43L170.64 30.43Q173.43 30.49 174.2 31.76Q174.48 32.24 174.48 32.89Q174.48 33.49 174.22 33.94Q173.45 35.26 170.42 35.26ZM166.68 42.67L166.68 37.57L171.35 37.57Q173.9 37.57 174.7 38.76Q175.07 39.3 175.07 40.1Q175.07 40.84 174.75 41.37Q174.53 41.73 174.18 42Q173.28 42.67 171.46 42.67L166.68 42.67ZM262.06 73.57L264.67 73.57L264.89 57.25L261.85 57.25L262.06 73.57ZM39.38 79.34Q41.08 80.31 43.32 80.31Q45.85 80.31 47.63 79.15Q48.84 78.36 49.7 77.04L47.93 75.67Q47.23 76.57 46.32 77.17Q46.2 77.25 46.07 77.32Q45.01 77.95 43.48 77.95Q42.28 77.95 41.32 77.47Q40.55 77.09 39.92 76.41Q39.72 76.19 39.55 75.95Q38.52 74.51 38.46 72.37L49.92 72.37L49.92 71.17Q49.92 67.12 48.09 64.95Q47.55 64.31 46.88 63.85Q45.29 62.78 42.96 62.78Q42.08 62.78 41.26 62.99Q40.19 63.27 39.22 63.89Q38.75 64.2 38.34 64.57Q37.23 65.55 36.53 66.99Q35.57 68.96 35.57 71.48L35.57 72.01Q35.57 75.14 37.05 77.22Q37.36 77.66 37.73 78.05Q38.48 78.83 39.38 79.34ZM71.97 66.92Q71 68.9 71 71.39L71 71.59Q71 75.04 72.64 77.31Q72.87 77.62 73.13 77.92Q73.97 78.86 75.02 79.43Q76.62 80.31 78.7 80.31Q80.55 80.31 82.06 79.59Q82.41 79.42 82.74 79.21Q83.33 78.84 83.84 78.37Q84.82 77.45 85.44 76.16Q86.39 74.2 86.39 71.73L86.39 71.53Q86.39 68 84.7 65.71Q84.49 65.43 84.25 65.17Q83.42 64.24 82.4 63.67Q80.78 62.78 78.67 62.78Q76.92 62.78 75.47 63.44Q75.07 63.62 74.69 63.85Q74.25 64.13 73.86 64.46Q72.7 65.44 71.97 66.92ZM124.21 78.21Q124.37 79.5 124.62 80L127.65 80L127.65 79.75Q127.06 78.37 127.06 76.04L127.06 68.26Q127.01 66.4 126.13 65.12Q125.79 64.64 125.34 64.24Q125.32 64.22 125.31 64.21Q123.65 62.78 120.76 62.78Q118.93 62.78 117.4 63.45Q117.39 63.46 117.38 63.46Q115.85 64.15 114.95 65.31Q114.95 65.32 114.94 65.33Q114.16 66.35 114.06 67.44Q114.04 67.61 114.04 67.78L116.95 67.78Q116.95 67.44 117.04 67.14Q117.27 66.43 118 65.89Q118.1 65.81 118.21 65.74Q119.2 65.1 120.59 65.1Q122.32 65.1 123.23 65.97Q123.24 65.99 123.26 66Q123.46 66.2 123.62 66.43Q124.17 67.24 124.17 68.42L124.17 69.75L121.35 69.75Q117.71 69.75 115.71 71.21Q114.85 71.83 114.36 72.66Q113.7 73.79 113.7 75.31Q113.7 76.45 114.14 77.38Q114.54 78.22 115.3 78.89Q115.62 79.18 115.98 79.4Q117.4 80.31 119.4 80.31Q120.63 80.31 121.7 79.91Q123.08 79.39 124.21 78.21ZM158.19 66.92Q157.21 68.9 157.21 71.39L157.21 71.59Q157.21 75.04 158.86 77.31Q159.09 77.62 159.35 77.92Q160.19 78.86 161.24 79.43Q162.84 80.31 164.92 80.31Q166.77 80.31 168.28 79.59Q168.63 79.42 168.96 79.21Q169.55 78.84 170.06 78.37Q171.04 77.45 171.66 76.16Q172.6 74.2 172.6 71.73L172.6 71.53Q172.6 68 170.92 65.71Q170.71 65.43 170.47 65.17Q169.64 64.24 168.61 63.67Q167 62.78 164.89 62.78Q163.14 62.78 161.69 63.44Q161.29 63.62 160.91 63.85Q160.47 64.13 160.08 64.46Q158.92 65.44 158.19 66.92ZM207.8 66.92Q206.82 68.9 206.82 71.39L206.82 71.59Q206.82 75.04 208.47 77.31Q208.7 77.62 208.96 77.92Q209.8 78.86 210.85 79.43Q212.45 80.31 214.53 80.31Q216.38 80.31 217.89 79.59Q218.24 79.42 218.57 79.21Q219.16 78.84 219.67 78.37Q220.64 77.45 221.27 76.16Q222.21 74.2 222.21 71.73L222.21 71.53Q222.21 68 220.53 65.71Q220.32 65.43 220.08 65.17Q219.25 64.24 218.22 63.67Q216.61 62.78 214.5 62.78Q212.75 62.78 211.3 63.44Q210.9 63.62 210.52 63.85Q210.08 64.13 209.68 64.46Q208.53 65.44 207.8 66.92ZM254.06 78.21Q254.21 79.5 254.46 80L257.5 80L257.5 79.75Q256.9 78.37 256.9 76.04L256.9 68.26Q256.86 66.4 255.97 65.12Q255.64 64.64 255.18 64.24Q255.17 64.22 255.15 64.21Q253.5 62.78 250.6 62.78Q248.77 62.78 247.24 63.45L247.22 63.46Q245.69 64.15 244.8 65.31L244.78 65.33Q244.01 66.35 243.9 67.44Q243.89 67.61 243.89 67.78L246.79 67.78Q246.79 67.44 246.89 67.14Q247.11 66.43 247.84 65.89Q247.95 65.81 248.06 65.74Q249.04 65.1 250.43 65.1Q252.17 65.1 253.07 65.97Q253.09 65.99 253.1 66Q253.31 66.2 253.46 66.43Q254.01 67.24 254.01 68.42L254.01 69.75L251.2 69.75Q247.56 69.75 245.55 71.21Q244.7 71.83 244.2 72.66Q243.54 73.79 243.54 75.31Q243.54 76.45 243.98 77.38Q244.38 78.22 245.14 78.89Q245.46 79.18 245.82 79.4Q247.24 80.31 249.25 80.31Q250.47 80.31 251.54 79.91Q252.92 79.39 254.06 78.21ZM106.96 66.56Q107.23 67.06 107.23 67.71Q107.23 68.63 106.79 69.2Q106.09 70.1 104.28 70.15L101.14 70.15L101.14 72.59L104.03 72.59Q105.82 72.59 106.68 73.21Q106.82 73.31 106.94 73.43Q107.53 74.06 107.53 75.25Q107.53 75.79 107.32 76.24Q107.07 76.81 106.51 77.23Q105.5 78 103.84 78Q102.48 78 101.5 77.39Q101.29 77.27 101.1 77.11Q100.35 76.52 100.11 75.76Q100 75.4 100 75L97.12 75Q97.12 76.29 97.66 77.3Q98.13 78.19 99.02 78.86Q99.08 78.91 99.14 78.95Q101.01 80.29 103.84 80.29Q106.84 80.29 108.64 78.93Q109.46 78.31 109.91 77.48Q110.43 76.51 110.43 75.25Q110.43 73.9 109.82 72.97Q109.09 71.85 107.48 71.31Q108.75 70.75 109.43 69.79Q109.83 69.24 110 68.63Q110.12 68.18 110.12 67.7Q110.12 66.16 109.41 65.08Q109.04 64.51 108.46 64.07Q106.81 62.79 103.84 62.79Q101.35 62.79 99.6 63.94Q99.41 64.06 99.23 64.2Q98.19 64.99 97.73 66.04Q97.39 66.85 97.39 67.81L100.26 67.81Q100.26 67.52 100.34 67.25Q100.54 66.51 101.28 65.93Q101.42 65.83 101.56 65.74Q102.51 65.14 103.84 65.14Q105.42 65.14 106.32 65.83Q106.73 66.14 106.96 66.56ZM29.07 65.43L34.75 65.43L34.75 63.09L20.62 63.09L20.62 65.43L26.18 65.43L26.18 80L29.07 80L29.07 65.43ZM67.12 80L67.12 63.09L55.7 63.09L55.39 70.32Q55.21 74.29 54.6 75.76Q54.23 76.66 53.56 77.07Q53.13 77.32 52.59 77.39L51.76 77.45L51.76 80L52.92 80Q54.61 79.94 55.7 79.1Q56.26 78.68 56.66 78.04Q57.84 76.17 58.12 71.81L58.46 65.48L64.21 65.48L64.21 80L67.12 80ZM150.45 80L153.34 80L153.34 63.09L139.76 63.09L139.76 80L142.67 80L142.67 65.48L150.45 65.48L150.45 80ZM189.84 80L189.84 63.09L178.42 63.09L178.1 70.32Q177.93 74.29 177.32 75.76Q176.95 76.66 176.28 77.07Q175.85 77.32 175.31 77.39L174.48 77.45L174.48 80L175.64 80Q177.33 79.94 178.42 79.1Q178.98 78.68 179.38 78.04Q180.56 76.17 180.84 71.81L181.18 65.48L186.93 65.48L186.93 80L189.84 80ZM197.6 65.48L205.4 65.48L205.4 63.09L194.7 63.09L194.7 80L197.6 80L197.6 65.48ZM225.57 76.4L224.57 77.64L223.26 77.64L223.25 84.96L226.14 84.96L226.14 80L237.93 80L237.93 84.96L240.82 84.96L240.82 77.64L238.65 77.64L238.65 63.09L227.76 63.09L227.5 69.84Q227.26 74.21 225.57 76.4ZM41.33 65.48Q42.07 65.15 42.96 65.15Q44.18 65.15 45.06 65.69Q45.49 65.96 45.84 66.36Q46.9 67.57 47.03 69.78L47.03 70L38.56 70Q38.84 67.7 40.03 66.42Q40.61 65.8 41.33 65.48ZM75.21 76.25Q73.9 74.54 73.9 71.73Q73.9 68.56 75.21 66.85Q75.88 65.99 76.75 65.57Q77.61 65.15 78.67 65.15Q79.78 65.15 80.67 65.6Q81.53 66.03 82.17 66.88Q83.5 68.6 83.5 71.39Q83.5 74.5 82.2 76.22Q81.58 77.04 80.76 77.47Q79.86 77.95 78.7 77.95Q77.55 77.95 76.65 77.48Q75.83 77.05 75.21 76.25ZM161.42 76.25Q160.12 74.54 160.12 71.73Q160.12 68.56 161.43 66.85Q162.1 65.99 162.97 65.57Q163.83 65.15 164.89 65.15Q166 65.15 166.89 65.6Q167.74 66.03 168.39 66.88Q169.71 68.6 169.71 71.39Q169.71 74.5 168.42 76.22Q167.8 77.04 166.98 77.47Q166.07 77.95 164.92 77.95Q163.77 77.95 162.86 77.48Q162.05 77.05 161.42 76.25ZM211.03 76.25Q209.73 74.54 209.73 71.73Q209.73 68.56 211.04 66.85Q211.71 65.99 212.58 65.57Q213.44 65.15 214.5 65.15Q215.61 65.15 216.49 65.6Q217.35 66.03 218 66.88Q219.32 68.6 219.32 71.39Q219.32 74.5 218.03 76.22Q217.41 77.04 216.59 77.47Q215.68 77.95 214.53 77.95Q213.38 77.95 212.47 77.48Q211.65 77.05 211.03 76.25ZM235.76 77.64L228 77.64Q230.12 74.84 230.39 69.79L230.56 65.76L235.76 65.76L235.76 77.64ZM120.82 77.69Q120.33 77.79 119.82 77.79Q118.6 77.79 117.76 77.23Q117.62 77.13 117.5 77.03Q117.21 76.79 117.02 76.49Q116.59 75.84 116.59 74.9Q116.59 74.11 116.94 73.52Q117.94 71.79 121.9 71.79L124.17 71.79L124.17 75.26Q124.07 75.45 123.96 75.63Q123.41 76.51 122.4 77.09Q121.64 77.53 120.82 77.69ZM250.66 77.69Q250.17 77.79 249.67 77.79Q248.44 77.79 247.6 77.23Q247.47 77.13 247.34 77.03Q247.06 76.79 246.86 76.49Q246.43 75.84 246.43 74.9Q246.43 74.11 246.78 73.52Q247.79 71.79 251.75 71.79L254.01 71.79L254.01 75.26Q253.92 75.45 253.81 75.63Q253.26 76.51 252.25 77.09Q251.48 77.53 250.66 77.69ZM261.94 77.7Q261.75 78.07 261.75 78.54Q261.75 79.03 261.96 79.41Q262.05 79.57 262.18 79.71Q262.21 79.75 262.26 79.79Q262.68 80.17 263.45 80.17Q264.21 80.17 264.65 79.79Q264.69 79.75 264.73 79.71Q264.87 79.56 264.96 79.39Q265.17 79.02 265.17 78.54Q265.17 78.08 264.98 77.72Q264.88 77.53 264.73 77.36Q264.67 77.3 264.61 77.25Q264.19 76.89 263.45 76.89Q262.71 76.89 262.29 77.25Q262.23 77.3 262.18 77.36Q262.04 77.52 261.94 77.7Z" fill="#202020" fill-opacity="1.000000" fill-rule="evenodd"/>
	<path id="Polygon 1" d="M120.31 119.72C118.7 120.99 116.45 119.32 117.2 117.42L129.48 86.26C129.96 85.04 131.47 84.61 132.53 85.39L146.48 95.72C147.54 96.51 147.57 98.08 146.53 98.9L120.31 119.72Z" fill="#BCEC30" fill-opacity="1.000000" fill-rule="nonzero"/>
</svg>
