<svg>
    <symbol id='icon-plus' width="32.000000" height="32.000000" viewBox="0 0 32 32" fill="none" xmlns="http://www.w3.org/2000/svg" xmlns:xlink="http://www.w3.org/1999/xlink">
        <defs>
            <clipPath id="clip33_2051">
                <rect id="Add-in-Circle" rx="-0.500000" width="31.000000" height="31.000000" transform="translate(0.500000 0.500000)" fill="white" fill-opacity="0"/>
            </clipPath>
        </defs>
        <g clip-path="url(#clip33_2051)">
            <path id="Icon" d="M16 29.33C23.36 29.33 29.33 23.36 29.33 16C29.33 8.63 23.36 2.66 16 2.66C8.63 2.66 2.66 8.63 2.66 16C2.66 23.36 8.63 29.33 16 29.33ZM14.66 14.66L14.66 9.33L17.33 9.33L17.33 14.66L22.66 14.66L22.66 17.33L17.33 17.33L17.33 22.66L14.66 22.66L14.66 17.33L9.33 17.33L9.33 14.66L14.66 14.66Z" fill="#FFFFFF" fill-opacity="1.000000" fill-rule="evenodd"/>
        </g>
    </symbol>
    <symbol id='icon-calendar' width="15.000000" height="15.000000" viewBox="0 0 15 15" fill="none" xmlns="http://www.w3.org/2000/svg" xmlns:xlink="http://www.w3.org/1999/xlink">
	    <path id="Icon" d="M4.5 0C5.32 0 6 0.67 6 1.5L9 1.5C9 0.67 9.67 0 10.5 0C11.32 0 12 0.67 12 1.5C13.65 1.5 15 2.84 15 4.5L0 4.5C0 2.84 1.34 1.5 3 1.5C3 0.67 3.67 0 4.5 0ZM15 6L0 6L0 10.2C0 11.88 0 12.72 0.32 13.36C0.61 13.92 1.07 14.38 1.63 14.67C2.27 15 3.11 15 4.8 15L10.2 15C11.88 15 12.72 15 13.36 14.67C13.92 14.38 14.38 13.92 14.67 13.36C15 12.72 15 11.88 15 10.2L15 6ZM9.08 9.4C9 9.56 9 9.77 9 10.2L9 10.8C9 11.22 9 11.43 9.08 11.59C9.15 11.73 9.26 11.84 9.4 11.91C9.56 12 9.77 12 10.2 12L10.8 12C11.22 12 11.43 12 11.59 11.91C11.73 11.84 11.84 11.73 11.91 11.59C12 11.43 12 11.22 12 10.8L12 10.2C12 9.77 12 9.56 11.91 9.4C11.84 9.26 11.73 9.15 11.59 9.08C11.43 9 11.22 9 10.8 9L10.2 9C9.77 9 9.56 9 9.4 9.08C9.26 9.15 9.15 9.26 9.08 9.4Z" fill="#202020" fill-opacity="1.000000" fill-rule="evenodd"/>
    </symbol>
    <symbol id='icon-time' width="15.000000" height="15.000000" viewBox="0 0 15 15" fill="none" xmlns="http://www.w3.org/2000/svg" xmlns:xlink="http://www.w3.org/1999/xlink">
	    <path id="Icon" d="M7.5 15C11.64 15 15 11.64 15 7.5C15 3.35 11.64 0 7.5 0C3.35 0 0 3.35 0 7.5C0 11.64 3.35 15 7.5 15ZM6.75 3L6.75 7.5C6.75 7.91 7.08 8.25 7.5 8.25L11.25 8.25L11.25 6.75L8.25 6.75L8.25 3L6.75 3Z" fill="#202020" fill-opacity="1.000000" fill-rule="evenodd"/>
    </symbol>
    <symbol id='icon-complexity' width="18.000000" height="18.000000" viewBox="0 0 18 18" fill="none" xmlns="http://www.w3.org/2000/svg" xmlns:xlink="http://www.w3.org/1999/xlink">
        <path id="Vector" d="M15 2.62C15.29 2.62 15.58 2.74 15.79 2.95C16 3.16 16.12 3.45 16.12 3.75L16.12 14.25C16.12 14.54 16 14.83 15.79 15.04C15.58 15.25 15.29 15.37 15 15.37C14.7 15.37 14.41 15.25 14.2 15.04C13.99 14.83 13.87 14.54 13.87 14.25L13.87 3.75C13.87 3.45 13.99 3.16 14.2 2.95C14.41 2.74 14.7 2.62 15 2.62Z" fill="#D9D9D9" fill-opacity="1.000000" fill-rule="evenodd"/>
        <path id="Vector" d="M12 4.87C12.29 4.87 12.58 4.99 12.79 5.2C13 5.41 13.12 5.7 13.12 6L13.12 14.25C13.12 14.54 13 14.83 12.79 15.04C12.58 15.25 12.29 15.37 12 15.37C11.7 15.37 11.41 15.25 11.2 15.04C10.99 14.83 10.87 14.54 10.87 14.25L10.87 6C10.87 5.7 10.99 5.41 11.2 5.2C11.41 4.99 11.7 4.87 12 4.87Z" fill="#D9D9D9" fill-opacity="1.000000" fill-rule="evenodd"/>
        <path id="Vector" d="M9 7.12C9.29 7.12 9.58 7.24 9.79 7.45C10 7.66 10.12 7.95 10.12 8.25L10.12 14.25C10.12 14.54 10 14.83 9.79 15.04C9.58 15.25 9.29 15.37 9 15.37C8.7 15.37 8.41 15.25 8.2 15.04C7.99 14.83 7.87 14.54 7.87 14.25L7.87 8.25C7.87 7.95 7.99 7.66 8.2 7.45C8.41 7.24 8.7 7.12 9 7.12Z" fill="#00C1FF" fill-opacity="1.000000" fill-rule="evenodd"/>
        <path id="Vector" d="M6 9.37C6.29 9.37 6.58 9.49 6.79 9.7C7 9.91 7.12 10.2 7.12 10.5L7.12 14.25C7.12 14.54 7 14.83 6.79 15.04C6.58 15.25 6.29 15.37 6 15.37C5.7 15.37 5.41 15.25 5.2 15.04C4.99 14.83 4.87 14.54 4.87 14.25L4.87 10.5C4.87 10.2 4.99 9.91 5.2 9.7C5.41 9.49 5.7 9.37 6 9.37Z" fill="#00C1FF" fill-opacity="1.000000" fill-rule="evenodd"/>
        <path id="Vector" d="M3 11.62C3.29 11.62 3.58 11.74 3.79 11.95C4 12.16 4.12 12.45 4.12 12.75L4.12 14.25C4.12 14.54 4 14.83 3.79 15.04C3.58 15.25 3.29 15.37 3 15.37C2.7 15.37 2.41 15.25 2.2 15.04C1.99 14.83 1.87 14.54 1.87 14.25L1.87 12.75C1.87 12.45 1.99 12.16 2.2 11.95C2.41 11.74 2.7 11.62 3 11.62Z" fill="#00C1FF" fill-opacity="1.000000" fill-rule="evenodd"/>
    </symbol>    
    <symbol id='icon-minus' width="32" height="32" viewBox="0 0 32 32" fill="none" xmlns="http://www.w3.org/2000/svg">
        <path fill-rule="evenodd" clip-rule="evenodd" d="M15.9998 29.3333C23.3636 29.3333 29.3332 23.3638 29.3332 16C29.3332 8.63616 23.3636 2.66663 15.9998 2.66663C8.63604 2.66663 2.6665 8.63616 2.6665 16C2.6665 23.3638 8.63604 29.3333 15.9998 29.3333ZM9.33317 14.6666V17.3333H22.6665V14.6666H9.33317Z" fill="white"/>
    </symbol>
    <symbol id='icon-check' width="20" height="21" viewBox="0 0 20 21" fill="none" xmlns="http://www.w3.org/2000/svg">
      <path fill-rule="evenodd" clip-rule="evenodd" d="M10 20.5C15.5228 20.5 20 16.0228 20 10.5C20 4.97715 15.5228 0.5 10 0.5C4.47715 0.5 0 4.97715 0 10.5C0 16.0228 4.47715 20.5 10 20.5ZM9.91339 14.6459L15.4134 8.14594L13.8866 6.85406L9.1373 12.4669L6.40258 9.3415L4.89742 10.6585L8.39742 14.6585C8.58922 14.8777 8.86704 15.0024 9.15829 15C9.44953 14.9976 9.72525 14.8683 9.91339 14.6459Z" fill="#BCEC30"/>
    </symbol>
    <symbol id='icon-uncheck' width="20" height="21" viewBox="0 0 20 21" fill="none" xmlns="http://www.w3.org/2000/svg">
        <circle cx="10" cy="10.5" r="9.5" stroke="black"/>
    </symbol>
    <symbol id='icon-pencil' width="24.000000" height="24.000000" viewBox="0 0 24 24" fill="none" xmlns="http://www.w3.org/2000/svg" xmlns:xlink="http://www.w3.org/1999/xlink">
	    <path id="矢量 52" d="M4.55 16.78L18.07 4.6L16.18 2.9L2.66 15.09L2.66 16.78L4.55 16.78ZM5.65 19.19L0 19.19L0 14.09L15.24 0.35C15.49 0.12 15.83 0 16.18 0C16.54 0 16.88 0.12 17.13 0.35L20.9 3.75C21.15 3.97 21.29 4.28 21.29 4.6C21.29 4.91 21.15 5.22 20.9 5.45L5.65 19.19L5.65 19.19ZM0 21.59L24 21.59L24 24L0 24L0 21.59Z" fill="#444444" fill-opacity="1.000000" fill-rule="evenodd"/>
    </symbol>
    <svg id='icon-save' width="22.000000" height="22.000000" viewBox="0 0 22 22" fill="none" xmlns="http://www.w3.org/2000/svg" xmlns:xlink="http://www.w3.org/1999/xlink">
        <path id="矢量 63" d="M17.11 0L2.44 0C1.08 0 0 1.1 0 2.44L0 19.55C0 20.89 1.08 22 2.44 22L19.55 22C20.9 22 22 20.89 22 19.55L22 4.88L17.11 0ZM11 19.55C8.97 19.55 7.33 17.91 7.33 15.88C7.33 13.86 8.97 12.22 11 12.22C13.02 12.22 14.66 13.86 14.66 15.88C14.66 17.91 13.02 19.55 11 19.55ZM14.66 7.33L2.44 7.33L2.44 2.44L14.66 2.44L14.66 7.33Z" fill="#444444" fill-opacity="1.000000" fill-rule="evenodd"/>
    </svg>
</svg>